<svg width="104" height="42" viewBox="0 0 104 42" fill="none" xmlns="http://www.w3.org/2000/svg">
<path d="M23.24 11.456V31H19.32V18.288L14.084 31H11.116L5.852 18.288V31H1.932V11.456H6.384L12.6 25.988L18.816 11.456H23.24ZM34.0036 31.252C32.5103 31.252 31.1663 30.9253 29.9716 30.272C28.7769 29.6 27.8343 28.6573 27.1436 27.444C26.4716 26.2307 26.1356 24.8307 26.1356 23.244C26.1356 21.6573 26.4809 20.2573 27.1716 19.044C27.8809 17.8307 28.8423 16.8973 30.0556 16.244C31.2689 15.572 32.6223 15.236 34.1156 15.236C35.6089 15.236 36.9623 15.572 38.1756 16.244C39.3889 16.8973 40.3409 17.8307 41.0316 19.044C41.7409 20.2573 42.0956 21.6573 42.0956 23.244C42.0956 24.8307 41.7316 26.2307 41.0036 27.444C40.2943 28.6573 39.3236 29.6 38.0916 30.272C36.8783 30.9253 35.5156 31.252 34.0036 31.252ZM34.0036 27.836C34.7129 27.836 35.3756 27.668 35.9916 27.332C36.6263 26.9773 37.1303 26.4547 37.5036 25.764C37.8769 25.0733 38.0636 24.2333 38.0636 23.244C38.0636 21.7693 37.6716 20.64 36.8876 19.856C36.1223 19.0533 35.1796 18.652 34.0596 18.652C32.9396 18.652 31.9969 19.0533 31.2316 19.856C30.4849 20.64 30.1116 21.7693 30.1116 23.244C30.1116 24.7187 30.4756 25.8573 31.2036 26.66C31.9503 27.444 32.8836 27.836 34.0036 27.836ZM53.5671 15.264C55.4151 15.264 56.9084 15.852 58.0471 17.028C59.1857 18.1853 59.7551 19.8093 59.7551 21.9V31H55.8351V22.432C55.8351 21.2 55.5271 20.2573 54.9111 19.604C54.2951 18.932 53.4551 18.596 52.3911 18.596C51.3084 18.596 50.4497 18.932 49.8151 19.604C49.1991 20.2573 48.8911 21.2 48.8911 22.432V31H44.9711V15.488H48.8911V17.42C49.4137 16.748 50.0764 16.2253 50.8791 15.852C51.7004 15.46 52.5964 15.264 53.5671 15.264ZM62.4748 23.188C62.4748 21.62 62.7828 20.2293 63.3988 19.016C64.0334 17.8027 64.8828 16.8693 65.9468 16.216C67.0294 15.5627 68.2334 15.236 69.5588 15.236C70.7161 15.236 71.7241 15.4693 72.5828 15.936C73.4601 16.4027 74.1601 16.9907 74.6828 17.7V15.488H78.6308V31H74.6828V28.732C74.1788 29.46 73.4788 30.0667 72.5828 30.552C71.7054 31.0187 70.6881 31.252 69.5308 31.252C68.2241 31.252 67.0294 30.916 65.9468 30.244C64.8828 29.572 64.0334 28.6293 63.3988 27.416C62.7828 26.184 62.4748 24.7747 62.4748 23.188ZM74.6828 23.244C74.6828 22.292 74.4961 21.48 74.1228 20.808C73.7494 20.1173 73.2454 19.5947 72.6108 19.24C71.9761 18.8667 71.2948 18.68 70.5668 18.68C69.8388 18.68 69.1668 18.8573 68.5508 19.212C67.9348 19.5667 67.4308 20.0893 67.0388 20.78C66.6654 21.452 66.4788 22.2547 66.4788 23.188C66.4788 24.1213 66.6654 24.9427 67.0388 25.652C67.4308 26.3427 67.9348 26.8747 68.5508 27.248C69.1854 27.6213 69.8574 27.808 70.5668 27.808C71.2948 27.808 71.9761 27.6307 72.6108 27.276C73.2454 26.9027 73.7494 26.38 74.1228 25.708C74.4961 25.0173 74.6828 24.196 74.6828 23.244ZM91.0273 31L87.8353 26.184L85.0073 31H80.8073L85.8753 23.216L80.7513 15.488H85.1753L88.3393 20.276L91.1953 15.488H95.3953L90.2993 23.216L95.4513 31H91.0273Z" fill="#3A3165"/>
<path d="M99.3164 31.196C98.6071 31.196 98.0191 30.9813 97.5524 30.552C97.1044 30.104 96.8804 29.5533 96.8804 28.9C96.8804 28.2467 97.1044 27.7053 97.5524 27.276C98.0191 26.828 98.6071 26.604 99.3164 26.604C100.007 26.604 100.576 26.828 101.024 27.276C101.472 27.7053 101.696 28.2467 101.696 28.9C101.696 29.5533 101.472 30.104 101.024 30.552C100.576 30.9813 100.007 31.196 99.3164 31.196Z" fill="#55BC7E"/>
</svg>
